<?xml version="1.0" standalone="no"?>
<!DOCTYPE svg PUBLIC "-//W3C//DTD SVG 20010904//EN"
 "http://www.w3.org/TR/2001/REC-SVG-20010904/DTD/svg10.dtd">
<svg version="1.0" xmlns="http://www.w3.org/2000/svg"
 width="360.000000pt" height="270.000000pt" viewBox="0 0 360.000000 270.000000"
 preserveAspectRatio="xMidYMid meet">
<metadata>
Created by potrace 1.16, written by Peter Selinger 2001-2019
</metadata>
<g transform="translate(0.000000,270.000000) scale(0.100000,-0.100000)"
fill="#000000" stroke="none">
<path d="M1548 2330 c4 -27 2 -30 -24 -30 -16 0 -52 -3 -80 -6 l-52 -7 4 29
c3 28 3 28 -5 4 -4 -14 -13 -24 -19 -23 -6 1 -75 5 -154 9 -79 3 -146 8 -150
11 -5 2 -8 -1 -8 -6 0 -6 10 -11 22 -11 17 0 19 -3 10 -12 -9 -9 -16 -7 -31 6
-13 12 -41 19 -82 22 -74 4 -72 -5 3 -16 51 -7 50 -8 -27 -8 -44 0 -91 4 -105
9 -19 7 -15 8 18 4 23 -3 42 -1 42 3 0 5 -23 9 -52 11 -28 1 -55 4 -60 7 -4 3
-5 -2 -2 -10 7 -18 -25 -23 -42 -6 -6 6 -25 14 -42 19 -25 8 -32 7 -32 -5 0
-8 -4 -13 -9 -11 -5 1 -17 -7 -25 -18 -12 -15 -15 -16 -16 -5 0 13 -1 13 -10
0 -8 -12 -11 -13 -19 -1 -7 11 -9 11 -14 0 -4 -9 -8 -10 -14 -4 -4 6 -18 11
-29 12 -17 2 -21 -2 -17 -16 3 -12 14 -18 31 -18 14 0 31 -8 38 -17 10 -15 12
-15 18 -1 3 8 15 15 26 15 17 0 20 -7 21 -42 1 -24 1 -46 0 -50 0 -4 -2 -20
-3 -37 -2 -29 -3 -29 -20 -14 -17 15 -20 15 -34 1 -11 -11 -12 -18 -5 -22 6
-4 11 0 11 8 0 9 4 16 10 16 9 0 7 -24 -6 -90 -5 -23 -7 -24 -18 -7 -7 9 -21
17 -30 17 -10 0 -15 4 -11 9 3 5 0 13 -7 17 -7 4 -10 4 -6 -1 5 -5 0 -14 -10
-20 -22 -16 -87 -5 -87 14 0 8 -10 15 -22 16 -12 1 -20 -2 -17 -6 3 -5 6 -24
8 -43 l2 -35 -32 20 c-28 17 -36 18 -53 7 -12 -7 -21 -16 -21 -20 0 -5 -5 -8
-11 -8 -5 0 -7 6 -3 13 4 6 -2 3 -14 -7 -12 -11 -22 -14 -22 -9 0 14 -43 25
-50 12 -9 -14 -46 -21 -127 -23 -74 -2 -98 -10 -73 -26 10 -7 11 -10 3 -10
-10 0 -13 -46 -13 -195 l0 -195 33 -1 c17 -1 57 -1 87 0 300 7 389 7 410 -1
15 -6 26 -6 28 0 1 5 14 7 27 4 14 -2 25 0 25 4 0 5 19 8 42 7 24 -1 63 -2 88
-3 38 -2 41 -3 20 -10 l-25 -8 26 -1 c15 -1 29 5 32 13 4 9 14 12 26 9 12 -3
18 -9 15 -14 -3 -5 0 -9 5 -9 6 0 11 6 11 13 0 9 2 9 8 0 8 -13 82 -15 82 -3
0 4 -16 6 -36 5 -22 -2 -32 1 -27 6 7 7 146 12 263 8 116 -3 194 2 207 13 9 7
13 7 13 0 0 -6 8 -11 18 -11 9 0 77 0 151 0 90 -1 138 3 145 10 8 9 7 10 -1 5
-16 -9 -17 1 -1 18 10 11 15 10 28 -2 11 -12 12 -16 2 -20 -6 -2 -12 -8 -12
-13 0 -6 5 -7 10 -4 6 3 10 1 10 -5 0 -12 -45 -32 -75 -34 -11 -1 -31 4 -45
10 -34 15 -110 17 -126 3 -10 -9 -14 -9 -14 0 0 6 -13 11 -30 11 -16 0 -30 -5
-30 -11 0 -5 -4 -7 -10 -4 -11 7 -98 -20 -117 -37 -9 -7 -13 -7 -13 1 0 6 -3
10 -7 10 -5 -1 -12 0 -18 2 -5 1 -54 3 -107 3 -71 1 -99 -3 -103 -12 -2 -7 5
-17 18 -22 16 -6 -2 -9 -63 -10 -47 -1 -93 -3 -102 -5 -10 -2 -18 1 -18 6 0 5
17 10 38 10 20 1 42 2 47 4 6 1 20 3 33 3 21 2 22 3 8 18 -10 10 -24 13 -37 9
-35 -12 -69 -13 -75 -3 -7 11 -114 0 -130 -13 -7 -6 -22 -5 -37 0 -15 6 -29 6
-31 2 -3 -5 -20 -7 -38 -4 -18 2 -44 4 -58 3 -95 -3 -106 -6 -127 -28 -19 -20
-25 -22 -45 -11 l-23 12 28 10 c15 5 27 13 27 19 0 6 -7 7 -17 3 -10 -5 -27
-9 -39 -10 -11 -1 -24 -4 -30 -7 -5 -4 -25 -5 -44 -3 -19 2 -55 6 -79 9 -24 2
-56 0 -70 -6 -14 -6 -46 -13 -70 -14 -25 -2 -50 -5 -57 -8 -7 -3 -15 0 -18 7
-2 7 -5 2 -5 -10 -1 -13 6 -23 16 -26 17 -4 17 -5 1 -6 -16 -1 -18 -16 -18
-176 l0 -175 43 0 c31 0 38 -3 27 -10 -13 -9 -13 -11 0 -20 13 -8 12 -10 -2
-10 -10 0 -18 7 -18 15 0 9 -9 15 -25 15 -18 0 -25 -5 -25 -20 0 -16 7 -20 38
-21 33 -1 34 -2 12 -9 l-25 -8 28 -1 c15 -1 27 -5 27 -11 0 -14 -20 -12 -52 4
-27 14 -28 14 -28 -10 0 -23 3 -25 40 -21 22 2 43 0 46 -5 3 -4 10 -6 15 -3 5
4 9 2 9 -3 0 -6 10 -8 23 -5 18 4 19 3 7 -6 -9 -7 -10 -11 -3 -11 28 0 21 21
-14 39 l-38 20 33 7 c17 3 32 10 32 15 0 5 12 9 26 9 14 0 23 -4 19 -9 -3 -5
-1 -13 5 -16 6 -4 9 -1 8 5 -2 7 7 14 20 16 13 2 22 -1 22 -9 0 -9 2 -9 9 1 5
9 21 12 42 9 33 -4 33 -4 9 -13 l-25 -8 30 -7 c23 -5 17 -7 -27 -8 -50 -1 -57
1 -52 17 5 15 4 15 -10 -2 -10 -12 -21 -16 -33 -12 -11 5 -14 4 -8 -2 13 -12
209 -26 202 -15 -10 16 7 33 23 23 12 -8 11 -10 -5 -11 -17 -1 -16 -2 5 -9 25
-8 25 -8 2 -9 -13 -1 -21 -5 -18 -9 2 -4 -15 -8 -40 -8 -24 0 -44 4 -44 8 0 4
-5 8 -11 8 -5 0 -7 -5 -3 -11 4 -7 -2 -9 -14 -7 -12 2 -21 -1 -21 -6 1 -5 -5
-13 -13 -17 -10 -7 -9 -9 4 -9 9 0 20 5 23 11 8 11 115 9 115 -3 0 -5 -9 -8
-20 -8 -11 0 -20 -4 -20 -9 0 -15 19 -23 32 -15 21 13 62 14 70 1 6 -9 8 -9 8
0 0 7 7 10 15 7 20 -8 9 -24 -18 -24 -12 0 -33 0 -47 -1 -14 0 -35 3 -47 6
-13 3 -23 1 -23 -5 0 -8 55 -16 83 -11 5 1 6 -2 3 -7 -3 -5 -26 -6 -51 -2 -25
4 -45 3 -45 -1 0 -4 10 -9 22 -11 28 -4 35 -26 11 -34 -10 -3 -26 -10 -37 -15
-10 -6 -16 -7 -13 -2 9 14 -52 9 -65 -7 -11 -12 -11 -12 4 -2 12 10 18 10 23
2 5 -8 27 -9 69 -5 91 10 156 22 124 24 -15 0 -30 6 -33 12 -5 7 -14 4 -26 -7
-28 -26 -23 -12 10 25 24 27 32 31 48 21 14 -9 26 -8 53 4 34 15 34 15 8 16
-30 0 -40 20 -10 20 11 1 7 6 -13 16 -23 11 -25 13 -7 10 12 -2 39 0 59 6 38
10 166 2 159 -11 -3 -4 -38 -6 -79 -3 -52 2 -77 0 -82 -9 -6 -9 -1 -10 19 -5
18 4 26 2 26 -6 0 -10 2 -10 8 -1 6 10 21 10 72 1 l65 -13 -50 -6 c-27 -3 -43
-7 -35 -8 13 -1 13 -2 0 -11 -13 -9 -13 -10 0 -11 8 0 4 -5 -10 -10 -17 -6 -3
-7 48 -5 39 2 72 -1 72 -5 0 -5 -10 -9 -22 -9 -41 0 -73 -6 -93 -17 -12 -7
-27 -8 -43 -2 -15 6 -21 5 -17 -1 4 -6 -9 -10 -29 -11 -20 -1 -48 -1 -63 -2
-16 0 -31 -5 -35 -11 -5 -7 -8 -7 -8 2 0 6 -7 12 -15 12 -8 0 -15 -4 -15 -10
0 -5 6 -10 13 -10 8 0 7 -4 -3 -10 -22 -14 -30 -12 -24 5 6 15 -8 15 -90 0
-24 -5 -41 -4 -45 3 -4 7 -17 8 -31 5 l-25 -7 25 -7 c22 -6 21 -7 -10 -7 -32
-1 -90 16 -63 17 7 1 10 8 7 16 -7 18 7 20 25 3 11 -11 13 -10 7 5 -3 10 -6
25 -6 33 0 8 -8 14 -17 13 -11 0 -13 -3 -5 -6 25 -10 11 -23 -25 -22 -24 1
-29 3 -16 6 13 2 23 11 23 19 0 22 57 18 62 -4 4 -16 32 -21 68 -13 3 1 -13
13 -35 27 l-40 26 35 -5 c22 -3 43 0 55 9 10 8 14 14 8 14 -7 0 -15 -4 -18
-10 -3 -5 -11 -10 -17 -10 -6 0 -4 8 5 18 15 17 14 18 -26 20 -23 1 -56 3 -73
5 -23 3 -30 -1 -31 -15 -1 -10 1 -17 5 -14 4 2 13 -3 21 -11 11 -13 10 -14
-10 -11 -13 2 -27 6 -30 11 -3 4 -27 4 -55 0 -46 -7 -47 -8 -19 -15 28 -6 27
-7 -7 -5 -21 2 -38 -1 -38 -6 0 -5 -7 -7 -15 -3 -20 7 -17 -50 4 -67 12 -10
13 -9 7 1 -6 10 -1 13 20 11 16 -1 36 1 44 4 8 4 31 2 50 -2 19 -5 29 -9 21
-10 -11 -1 -10 -5 4 -21 10 -11 24 -20 30 -20 7 0 18 -7 25 -15 7 -8 18 -15
24 -14 7 0 6 2 -1 6 -25 9 -12 21 30 29 61 10 127 11 127 2 0 -5 -12 -8 -28
-7 -46 4 -92 -11 -85 -27 6 -17 -13 -19 -21 -1 -2 6 -4 1 -3 -13 1 -14 6 -28
12 -32 5 -4 6 -10 3 -14 -4 -3 -14 1 -23 10 -9 9 -12 16 -6 16 6 0 11 4 11 8
0 16 -77 35 -117 28 -27 -5 -34 -4 -23 3 8 6 24 11 34 11 39 0 5 12 -41 15
-32 1 -60 -4 -82 -16 l-35 -19 52 5 c29 2 52 0 52 -5 0 -5 15 -11 33 -13 l32
-4 -37 -3 c-21 -1 -44 -3 -50 -4 -7 -1 -24 2 -37 6 -17 6 -27 5 -33 -4 -17
-27 -7 -37 42 -44 31 -4 49 -11 47 -18 -2 -6 3 -16 11 -22 13 -9 13 -12 -2
-17 -9 -4 -16 -3 -16 2 0 4 -20 7 -45 7 -30 -1 -45 -5 -45 -14 0 -7 5 -10 10
-7 6 3 10 2 10 -4 0 -5 -4 -13 -10 -16 -19 -12 -10 -23 26 -30 33 -6 35 -7 18
-20 -11 -8 -25 -15 -31 -15 -19 0 -15 18 5 23 13 4 11 5 -5 6 -22 1 -23 -3
-23 -62 0 -74 10 -87 57 -80 30 5 35 3 31 -13 -3 -15 -11 -19 -41 -17 -20 1
-35 -3 -32 -8 4 -5 1 -9 -4 -9 -7 0 -11 -55 -11 -165 l0 -165 935 0 c806 0
934 2 929 14 -4 11 0 13 15 9 12 -3 21 -9 21 -15 0 -5 167 -8 410 -7 375 1
410 2 410 17 0 15 2 15 10 2 9 -13 12 -13 23 2 15 19 57 20 57 2 0 -7 -10 -14
-22 -16 -13 -2 13 -4 57 -5 62 0 75 2 58 10 -26 11 -30 27 -8 27 8 0 15 -3 15
-7 0 -5 19 -8 42 -9 23 0 43 -5 46 -12 2 -7 11 -12 20 -12 13 0 14 2 3 9 -9 6
3 11 35 15 27 4 63 9 79 11 l30 5 -30 -15 c-24 -11 -26 -14 -10 -15 11 0 30 7
42 15 25 17 83 10 83 -11 0 -10 36 -13 175 -13 l175 -1 0 59 0 60 -37 -4 -38
-5 38 11 c43 13 52 45 15 52 l-23 4 23 2 c26 1 30 31 5 32 -17 0 -16 1 0 8 17
6 17 8 -5 18 -13 6 -59 20 -103 32 -112 31 -149 52 -152 85 -1 14 -8 33 -17
41 -20 20 -65 37 -78 29 -7 -5 -8 -2 -3 6 6 10 4 12 -8 7 -9 -3 -18 1 -21 10
-4 10 -2 13 7 10 8 -3 14 1 14 9 0 17 -13 18 -22 3 -4 -5 -17 -9 -28 -8 -12 1
-45 -1 -72 -5 -29 -4 -62 -3 -77 3 -19 7 -28 7 -32 -2 -5 -9 -7 -9 -12 1 -9
20 -24 14 -24 -10 0 -20 -1 -20 -12 -5 -12 15 -18 15 -73 2 -71 -17 -128 -20
-105 -5 8 5 22 7 32 4 9 -2 20 1 24 7 4 7 3 9 -4 5 -6 -3 -14 -1 -18 5 -5 9 6
11 45 6 28 -3 49 -2 46 3 -3 4 5 6 17 2 15 -4 19 -2 14 7 -9 14 -101 13 -130
-2 -12 -6 -21 -5 -25 1 -4 6 -18 16 -31 22 -23 10 -23 10 -2 6 12 -2 20 -1 17
4 -8 13 17 27 58 33 34 5 37 4 32 -14 -5 -16 -1 -19 27 -20 18 0 41 -2 52 -4
24 -5 7 12 -19 18 -18 4 -17 5 3 6 13 0 21 5 18 10 -3 5 3 11 14 14 15 4 20 0
20 -13 0 -15 8 -18 43 -17 23 0 60 -3 82 -7 32 -6 36 -9 22 -17 -10 -6 -15
-14 -12 -20 10 -15 23 -10 30 10 7 22 32 34 48 24 7 -4 2 -9 -13 -13 -23 -6
-23 -7 -5 -11 12 -4 28 2 40 13 15 14 16 18 3 13 -9 -4 -19 -2 -23 4 -4 7 4
11 20 11 14 0 24 4 21 9 -7 10 -56 9 -73 -2 -9 -6 -11 -3 -7 8 4 10 2 15 -7
13 -8 -2 -13 2 -12 7 1 6 -9 15 -23 22 -13 6 -22 8 -19 3 3 -4 -4 -10 -15 -13
-21 -5 -28 -37 -8 -37 6 0 8 -3 5 -6 -4 -4 -13 -2 -21 5 -8 6 -18 11 -22 10
-5 -1 -18 0 -29 1 -17 1 -15 4 10 16 l30 14 -37 -4 c-21 -2 -38 0 -38 4 0 5
-10 6 -22 2 -13 -3 -19 -1 -15 5 9 14 -23 27 -35 15 -11 -11 -60 -3 -53 9 3 4
12 6 19 3 8 -3 17 -1 21 5 4 7 -12 11 -47 12 -42 1 -48 3 -28 9 18 6 20 8 7 9
-10 1 -30 7 -46 15 -17 9 -32 11 -42 5 -11 -7 -10 -9 6 -9 15 0 17 -2 6 -9
-11 -7 -9 -10 8 -16 13 -4 20 -9 17 -12 -3 -3 -16 1 -29 10 -14 9 -34 13 -46
10 -12 -3 -21 -1 -21 6 0 5 -6 8 -14 5 -11 -4 -13 0 -9 15 5 19 1 21 -36 21
-28 0 -40 -4 -35 -11 3 -6 19 -9 35 -5 16 3 29 1 29 -4 0 -6 -4 -10 -10 -10
-5 0 -7 -6 -4 -13 3 -8 -5 -13 -23 -14 -16 -1 -22 1 -15 4 6 2 12 9 12 14 0 5
-14 2 -32 -7 -24 -13 -36 -14 -50 -5 -22 14 -48 14 -48 1 0 -5 11 -10 25 -10
14 0 25 -4 25 -9 0 -9 40 -7 131 5 30 4 49 2 53 -5 5 -7 1 -9 -8 -5 -11 4 -16
0 -16 -11 0 -9 4 -14 8 -11 5 3 32 -1 60 -9 29 -7 75 -11 104 -8 29 2 64 0 78
-5 l25 -10 -27 -7 c-16 -4 -28 -14 -28 -24 0 -14 -2 -14 -10 -1 -14 22 -12 28
13 34 12 3 -3 3 -33 1 -30 -3 -77 -5 -103 -5 -35 0 -47 -4 -44 -12 2 -8 16
-12 31 -10 16 2 26 0 23 -5 -3 -5 -29 -10 -56 -12 -42 -2 -50 1 -45 14 3 8 1
15 -5 15 -6 0 -11 -5 -11 -11 0 -6 -7 -3 -16 5 -19 20 -38 21 -31 3 4 -10 -2
-13 -20 -9 -18 3 -21 7 -11 13 13 9 11 10 -14 13 -7 0 -13 6 -13 13 0 6 -3 15
-7 19 -5 4 -8 -1 -8 -10 0 -12 -5 -16 -15 -12 -8 3 -15 1 -15 -4 0 -6 6 -10
13 -11 14 -1 -31 -17 -53 -18 -12 -1 -13 1 -1 8 7 5 11 14 7 20 -4 6 -2 20 4
31 10 19 10 19 -26 -2 -30 -18 -37 -19 -45 -7 -6 10 -9 10 -9 2 0 -7 -4 -13
-10 -13 -5 0 -10 7 -10 16 0 9 -6 14 -13 11 -6 -2 -18 2 -25 9 -11 12 -6 13
30 9 l43 -4 -35 14 c-25 10 -29 14 -15 15 12 1 15 4 7 7 -7 3 -19 -1 -27 -7
-12 -10 -16 -9 -21 4 -9 25 -53 20 -63 -7 -5 -12 -8 -23 -6 -25 5 -6 35 11 35
20 0 5 -4 6 -10 3 -5 -3 -10 -1 -10 4 0 24 38 10 44 -15 4 -15 6 -28 4 -29 -8
-8 -135 -8 -148 -1 -12 7 -13 6 -3 -4 8 -9 9 -19 2 -31 -7 -15 -6 -17 6 -13 8
3 12 10 9 15 -3 5 4 9 15 9 13 0 18 -5 15 -13 -3 -9 6 -17 27 -23 25 -7 32
-15 35 -37 2 -18 -2 -27 -12 -27 -8 0 -14 5 -14 11 0 6 -6 9 -12 6 -7 -2 -24
-8 -38 -12 l-25 -7 24 21 c13 12 21 24 17 28 -4 5 -12 0 -17 -10 -6 -9 -14
-15 -19 -12 -4 3 -11 -2 -14 -11 -4 -10 -14 -14 -26 -11 -11 3 -20 2 -20 -3 0
-7 25 -18 64 -26 37 -8 29 -14 -17 -12 -26 1 -47 6 -47 10 0 4 -10 8 -22 9
-13 0 -17 3 -10 6 6 2 12 9 12 15 0 6 -8 4 -17 -5 -15 -13 -21 -13 -35 -3 -10
7 -16 15 -13 18 3 2 -2 5 -10 5 -8 0 -12 -4 -9 -9 3 -5 -11 -15 -31 -24 -20
-8 -33 -19 -30 -24 3 -5 1 -11 -5 -15 -5 -3 -10 -2 -10 3 0 14 -28 23 -35 12
-10 -16 34 -33 51 -19 8 6 12 14 9 17 -3 3 12 11 32 18 20 7 39 11 42 9 2 -3
-1 -5 -8 -5 -7 0 -10 -4 -6 -9 3 -5 0 -13 -6 -17 -8 -5 -9 -3 -4 6 5 8 3 11
-6 8 -8 -3 -15 -10 -15 -16 -1 -7 -2 -17 -3 -23 0 -6 -8 -9 -16 -5 -8 3 -14 2
-14 -2 4 -28 -2 -34 -16 -16 -11 14 -14 15 -15 4 0 -13 -1 -13 -10 0 -5 8 -10
10 -10 4 0 -9 -11 -9 -40 -2 -49 13 -53 32 -6 26 19 -2 32 0 30 4 -3 4 -15 8
-28 8 -12 0 -28 6 -35 13 -11 9 -14 9 -18 0 -3 -8 -14 -11 -29 -7 -20 5 -24 2
-24 -15 0 -12 5 -21 10 -21 6 0 10 -4 10 -10 0 -5 -6 -10 -14 -10 -8 0 -17 -6
-20 -12 -3 -7 -3 5 1 26 5 34 3 38 -11 33 -11 -5 -16 -1 -16 13 0 10 -9 21
-20 25 -16 5 -17 10 -10 31 8 19 6 24 -6 24 -8 0 -12 -4 -9 -10 3 -5 -12 -13
-35 -16 -28 -5 -37 -10 -28 -15 10 -7 9 -9 -3 -9 -10 0 -20 12 -24 28 -4 15
-9 22 -12 15 -2 -7 -11 -9 -19 -6 -11 4 -15 0 -12 -13 2 -11 -4 -20 -14 -22
-11 -2 -18 3 -18 12 0 11 -9 16 -27 16 l-28 0 23 -18 c24 -18 23 -18 -45 -17
-67 1 -102 9 -114 28 -3 5 -9 2 -12 -7 -6 -16 3 -20 32 -17 7 2 10 -2 6 -8 -3
-6 0 -11 7 -12 7 0 2 -5 -12 -10 -17 -7 -26 -7 -28 0 -2 6 -18 11 -35 11 -30
1 -30 2 -12 13 11 7 21 19 23 27 2 11 -1 11 -11 -2 -19 -24 -23 -23 -23 6 0
22 3 24 36 19 33 -5 34 -5 15 10 -19 15 -18 16 12 5 18 -7 28 -15 22 -19 -8
-5 -8 -9 0 -13 6 -4 14 0 17 8 4 10 17 16 33 15 14 0 37 2 51 5 63 12 93 15
84 7 -5 -5 -18 -11 -29 -14 -13 -3 -9 -5 12 -6 17 0 35 4 38 9 4 6 28 8 59 4
48 -6 54 -4 59 15 3 12 13 21 24 20 17 0 17 -1 -1 -8 -18 -7 -16 -9 12 -19 19
-6 34 -7 37 -1 4 5 21 3 41 -6 19 -8 32 -10 28 -4 -3 6 5 9 22 7 15 -2 29 2
31 9 3 8 -6 9 -32 3 -35 -8 -37 -7 -31 13 5 20 4 21 -8 4 -9 -11 -22 -16 -37
-13 -13 3 -27 5 -31 5 -4 1 -5 8 -1 17 5 14 17 15 77 9 39 -4 75 -12 79 -18 6
-8 7 -7 5 3 -3 8 -15 17 -29 21 -13 4 -18 7 -10 8 8 1 11 4 7 8 -4 4 -49 8
-101 9 -110 3 -134 12 -84 31 l34 13 -52 -5 c-36 -4 -53 -2 -56 7 -3 8 -6 6
-6 -4 -1 -18 -21 -26 -21 -10 0 15 -47 31 -71 25 -23 -6 -23 -6 -7 10 17 18
124 27 147 12 6 -3 11 -1 11 4 0 6 10 11 23 11 18 0 19 -2 7 -10 -11 -7 -4 -9
25 -9 22 1 31 4 21 6 -15 4 -16 7 -5 14 9 5 -10 9 -53 9 -37 0 -70 5 -73 11
-4 6 -17 14 -29 19 -15 6 -4 9 42 9 38 1 62 5 62 12 0 7 10 9 25 7 14 -3 25
-1 25 3 0 5 -21 9 -47 9 -36 0 -44 -3 -33 -11 11 -7 2 -9 -33 -6 -41 3 -80 17
-49 17 5 0 18 3 28 7 12 4 15 3 10 -5 -10 -16 -1 -15 36 4 17 9 43 14 59 12
15 -3 26 -1 23 4 -3 4 -13 9 -22 9 -9 1 -1 5 18 9 l35 7 -40 2 c-39 1 -39 1
-17 17 19 13 26 14 40 3 12 -10 12 -8 -2 9 -19 22 -19 22 -1 16 12 -5 16 -4
12 3 -4 6 -1 14 5 17 7 3 1 3 -14 0 -18 -4 -28 -2 -28 6 0 6 -6 10 -12 7 -17
-6 -50 12 -43 23 3 5 18 5 34 0 31 -9 81 -2 81 10 0 5 -16 7 -35 5 -19 -2 -35
1 -35 6 0 5 5 9 10 9 6 0 10 4 10 8 0 12 -69 13 -91 2 -10 -6 -20 -6 -23 -1
-7 11 61 24 124 23 l45 -1 -50 20 c-27 10 -57 19 -66 19 -25 0 -80 -25 -72
-33 3 -4 -1 -7 -10 -7 -9 0 -17 -5 -17 -12 0 -6 3 -9 6 -5 9 9 32 -16 27 -29
-2 -7 6 -10 21 -9 14 2 26 0 26 -5 0 -10 -75 -21 -135 -19 -27 1 -54 1 -60 1
-5 -1 -30 -3 -55 -5 -25 -3 -30 -2 -12 0 17 2 32 8 32 13 0 5 20 7 45 5 25 -2
45 1 45 6 0 11 -44 22 -87 22 -18 0 -33 4 -33 8 0 5 25 8 55 8 30 -1 55 -5 55
-10 0 -5 10 -9 23 -10 12 0 16 -3 9 -6 -22 -9 -2 -23 31 -22 26 0 28 2 12 8
l-20 8 20 5 c18 5 18 6 -3 7 -14 1 -21 5 -16 12 4 8 -1 9 -16 4 -19 -6 -22 -4
-17 9 7 17 -5 21 -55 17 -22 -2 -26 1 -22 13 5 14 -9 16 -112 17 -79 1 -107 4
-84 9 43 9 39 11 -28 13 -39 2 -56 7 -63 19 -9 16 -4 18 43 18 29 1 76 7 103
15 l50 14 -50 0 c-36 1 -46 4 -35 11 8 5 10 10 5 10 -6 0 -11 9 -12 20 -1 11
4 20 12 20 7 0 16 6 18 13 5 11 11 -17 8 -35 0 -5 4 -8 9 -8 6 0 10 8 11 18 0
13 2 14 6 2 3 -8 11 -18 17 -22 7 -5 3 -8 -9 -9 -17 -1 -16 -2 5 -9 14 -4 32
-8 40 -9 13 0 13 1 0 12 -20 16 -22 34 -5 34 8 0 12 -4 9 -9 -3 -4 2 -8 11 -8
11 0 15 -5 11 -15 -4 -11 2 -15 27 -15 24 0 28 -3 17 -10 -13 -8 -12 -10 3
-10 19 0 23 26 5 33 -7 3 1 5 17 5 17 0 24 -2 18 -5 -24 -9 -14 -33 12 -31 20
2 23 6 19 25 -6 21 -3 23 32 24 24 1 30 3 17 6 -15 3 -23 12 -23 24 0 10 -6
19 -12 20 -7 0 -1 5 13 10 16 6 35 6 50 0 23 -10 24 -10 2 -10 -16 -1 -21 -5
-16 -16 3 -9 8 -14 10 -11 3 3 11 -1 18 -7 10 -10 7 -15 -19 -25 l-31 -12 33
5 c31 4 45 -8 20 -18 -7 -3 -2 -6 12 -7 l25 -1 -23 -12 c-12 -7 -19 -16 -16
-20 4 -4 -1 -7 -12 -8 -30 -2 24 -17 64 -18 32 -1 44 13 20 22 -10 4 -9 8 2
16 13 10 13 11 0 11 -8 0 2 9 23 19 31 14 35 20 24 29 -8 7 -18 8 -22 4 -5 -4
-5 -1 -1 6 4 6 13 12 21 12 8 0 16 4 19 9 4 5 -5 8 -19 6 -14 -1 -25 2 -25 6
0 5 12 9 28 10 l27 1 -25 8 c-21 7 -19 8 17 9 33 1 41 4 38 19 -1 9 2 23 8 30
6 8 6 12 -1 12 -6 0 -10 25 -8 65 1 51 6 68 23 84 11 11 24 17 27 14 3 -4 6
-1 6 7 0 9 9 11 30 7 16 -4 32 -2 35 3 7 11 37 2 47 -14 4 -6 8 1 8 16 0 22 4
26 18 21 9 -4 21 -11 25 -17 5 -7 7 -2 4 12 -3 12 -3 22 -1 22 14 0 54 -57 56
-79 1 -14 2 -33 4 -41 1 -8 2 -33 3 -54 1 -22 4 -36 8 -32 4 4 6 40 4 81 -3
86 4 116 25 108 7 -3 14 0 14 6 0 6 9 11 20 11 11 0 20 -5 20 -11 0 -5 4 -8 8
-5 18 11 32 -43 37 -144 3 -58 6 -117 5 -132 0 -20 5 -28 17 -29 12 -1 10 -4
-7 -9 l-25 -7 24 -10 25 -10 -25 -8 c-24 -8 -24 -8 5 -12 16 -3 33 0 39 6 8 8
7 11 -4 11 -10 1 -8 4 5 11 15 9 16 13 5 20 -11 7 -10 9 4 9 10 0 16 4 12 9
-3 6 3 14 12 20 15 9 12 11 -17 12 -24 1 -28 3 -12 6 22 4 25 17 26 140 0 16
9 23 31 29 16 3 37 6 44 4 12 -1 13 1 3 13 -10 12 -10 16 0 20 7 3 4 6 -8 6
-11 1 -24 -3 -30 -8 -5 -5 -18 -5 -29 -1 -22 9 -15 13 37 24 15 3 33 12 40 19
17 18 58 28 58 15 0 -7 4 -7 13 0 7 6 22 11 32 11 11 0 29 1 39 4 11 2 31 -2
45 -9 27 -14 68 -13 90 0 7 5 61 12 119 18 59 5 123 11 142 13 19 2 47 4 63 4
18 1 27 6 27 17 0 13 3 14 14 5 11 -10 16 -8 24 5 6 10 16 15 26 11 11 -4 16
-1 16 11 0 14 2 15 10 2 11 -17 23 -8 25 20 1 15 -2 17 -17 9 -13 -7 -18 -6
-19 3 0 7 -4 4 -9 -7 -5 -11 -9 -14 -9 -7 -1 14 -31 17 -31 3 0 -10 -14 -9
-44 4 -12 5 -21 3 -27 -6 -7 -11 -9 -10 -9 5 0 16 -3 17 -12 8 -16 -16 -31
-15 -22 1 6 9 4 9 -7 2 -8 -5 -33 -10 -56 -10 -24 1 -43 -2 -43 -5 0 -3 -16
-4 -35 -2 -28 3 -35 1 -35 -13 0 -14 -3 -15 -15 -5 -17 14 -75 20 -75 7 0 -6
-5 -6 -12 0 -7 5 -31 11 -53 12 -22 2 -46 8 -53 13 -7 6 -15 8 -19 4 -3 -3 -1
-6 5 -6 7 0 12 -4 12 -10 0 -5 -3 -9 -7 -9 -21 3 -33 -2 -33 -16 0 -8 -9 -15
-20 -15 -11 0 -20 5 -20 11 0 12 -29 38 -43 39 -5 0 -6 -4 -2 -9 3 -6 -10 -5
-31 1 -20 5 -38 7 -42 4 -3 -3 2 -6 11 -6 10 0 17 -4 17 -9 0 -5 6 -9 13 -8
30 1 47 -4 47 -13 0 -5 -7 -10 -15 -10 -8 0 -15 -4 -15 -10 0 -6 -9 -6 -22 -1
-13 5 -22 16 -20 25 4 20 1 20 -34 2 -15 -8 -31 -13 -36 -10 -4 3 -8 -2 -8
-10 0 -9 -4 -16 -10 -16 -5 0 -7 7 -3 16 5 13 2 15 -18 9 -22 -7 -23 -7 -9 11
8 10 20 22 25 26 6 4 2 8 -7 8 -10 0 -18 5 -18 10 0 6 4 10 9 10 5 0 16 3 25
6 9 3 16 1 16 -6 0 -6 -4 -8 -10 -5 -6 3 -7 -1 -4 -9 3 -9 11 -16 17 -16 6 0
7 3 4 7 -10 9 13 33 32 33 14 -1 14 -2 -1 -11 -10 -5 -18 -15 -18 -21 0 -6 6
-5 16 3 16 13 122 17 619 21 83 0 158 5 168 10 11 5 17 5 17 -2 0 -5 8 -10 18
-10 16 -1 16 -1 -1 -11 -12 -7 -16 -17 -12 -30 4 -10 3 -19 -2 -19 -4 0 -14
-4 -21 -9 -12 -7 -11 -14 3 -41 9 -17 14 -34 11 -38 -3 -3 0 -12 6 -21 7 -9 1
-6 -13 7 -33 29 -41 28 -38 -5 3 -37 -9 -63 -29 -63 -13 0 -12 -3 4 -14 18
-14 18 -15 -3 -13 -13 1 -23 8 -24 17 0 11 -3 9 -8 -4 -7 -18 -8 -18 -14 -2
-4 9 -12 14 -17 11 -18 -11 9 -35 39 -35 15 0 33 -6 39 -12 10 -10 15 -10 21
0 5 8 6 -9 3 -37 -4 -47 -3 -51 17 -51 12 0 21 6 21 15 0 12 3 13 13 4 6 -6
12 -31 12 -55 0 -43 -1 -44 -33 -44 -22 0 -31 -4 -26 -11 3 -6 1 -15 -7 -19
-10 -7 -10 -12 -1 -23 7 -7 8 -17 4 -22 -4 -4 3 -4 15 -1 18 6 22 4 17 -8 -3
-9 -12 -12 -22 -8 -15 5 -15 4 -3 -11 11 -14 11 -17 0 -18 -17 -1 20 -17 42
-18 8 -1 25 8 37 19 14 13 22 16 22 8 0 -13 -44 -38 -67 -38 -7 0 -13 -6 -13
-12 0 -9 -3 -8 -10 2 -5 8 -11 12 -14 9 -3 -2 -1 -11 4 -19 7 -11 11 -11 24
-1 13 11 16 11 16 1 0 -9 10 -11 30 -6 19 3 29 2 25 -4 -12 -19 24 -10 43 11
l20 20 6 -25 c3 -14 11 -26 17 -26 6 0 7 -5 4 -10 -4 -7 -12 -7 -25 0 -29 16
-39 12 -32 -12 4 -19 3 -21 -9 -12 -16 13 -95 25 -115 17 -29 -11 -12 -23 27
-19 24 2 62 -4 92 -15 28 -10 53 -17 55 -14 3 2 -3 7 -12 11 -16 6 -13 24 5
24 6 0 8 -4 4 -9 -9 -16 13 -23 47 -16 31 7 31 8 9 19 -12 7 -18 15 -15 19 4
4 2 7 -4 7 -6 0 -9 6 -6 14 4 9 -3 16 -18 19 -18 3 -17 4 7 5 17 0 41 -4 55
-8 l25 -8 -27 -1 c-16 -1 -28 -5 -28 -10 0 -13 34 -24 38 -12 5 15 23 14 20
-1 -2 -7 4 -13 12 -14 35 -3 40 -4 40 -13 0 -4 -16 -7 -35 -5 -22 1 -34 -2
-32 -9 1 -7 -7 -12 -18 -13 -58 -3 -66 -5 -60 -14 8 -13 -21 -13 -46 0 -15 8
-19 8 -17 -2 2 -7 8 -16 13 -20 15 -11 -20 -10 -51 2 -15 6 -29 8 -31 6 -3 -3
17 -11 43 -19 42 -12 49 -18 51 -41 1 -14 -1 -25 -5 -22 -4 2 -16 0 -27 -4
-16 -5 -12 -8 20 -14 26 -5 41 -4 43 3 6 19 22 12 22 -10 0 -13 4 -18 12 -13
7 4 8 3 4 -5 -11 -17 19 -24 44 -11 15 8 20 8 16 1 -4 -6 -3 -11 1 -11 5 0 9
-8 9 -19 0 -11 -5 -17 -13 -14 -7 3 -13 10 -13 15 0 6 -11 7 -26 4 -16 -4 -23
-3 -20 3 7 10 -39 22 -97 25 -25 1 -33 -2 -29 -12 3 -9 16 -13 37 -10 22 3 31
0 28 -8 -2 -7 -12 -11 -21 -10 -9 2 -24 -2 -33 -7 -28 -17 7 -47 56 -48 22 0
49 -5 60 -10 14 -6 5 -7 -30 -4 l-50 6 38 -17 c46 -20 47 -29 3 -29 -25 0 -32
4 -28 15 3 9 -2 6 -11 -5 -14 -16 -18 -17 -26 -6 -5 8 -14 10 -21 6 -9 -6 -6
-12 11 -22 23 -13 23 -14 2 -8 -13 4 -23 2 -23 -3 0 -6 18 -12 40 -14 23 -2
40 1 40 7 0 5 5 3 10 -5 9 -13 10 -13 10 0 1 13 2 13 13 0 7 -9 23 -16 37 -17
24 -2 24 -1 6 13 -19 13 -18 14 10 14 16 0 47 5 69 12 22 6 46 10 54 9 7 -1
10 2 6 8 -3 6 -2 11 4 11 5 0 22 11 36 24 29 27 69 31 87 8 11 -13 8 -15 -30
-10 -39 6 -42 5 -30 -10 21 -28 28 -30 67 -20 37 9 53 38 22 38 -14 1 -13 2 2
11 32 19 17 27 -49 28 -36 0 -75 3 -86 6 -29 10 -15 30 21 29 17 -1 31 2 31 7
0 5 -12 9 -26 9 -14 0 -22 4 -19 10 3 5 18 7 33 4 16 -3 35 1 47 10 11 9 14
16 8 16 -7 0 -13 5 -13 11 0 6 14 9 33 7 30 -3 32 -1 35 35 2 25 -1 37 -10 37
-10 0 -9 3 2 11 12 9 11 10 -7 6 -18 -4 -23 -1 -23 15 0 15 5 18 20 13 19 -6
20 -2 18 177 0 101 -3 177 -5 171 -3 -7 -12 -13 -20 -13 -13 0 -12 4 5 18 12
10 20 28 19 39 -1 20 -2 20 -47 -4 -25 -13 -37 -18 -27 -10 9 8 17 19 17 26 0
6 3 10 8 9 4 -2 17 4 30 13 22 16 22 19 21 222 -1 114 -4 205 -8 202 -4 -2
-16 10 -26 28 -10 18 -12 26 -4 20 16 -15 33 -17 24 -3 -3 6 -2 10 4 10 5 0 9
33 9 77 -1 80 -11 103 -44 103 -14 0 -15 2 -3 17 13 15 12 15 -6 5 -38 -22
-55 -39 -55 -56 0 -9 -4 -16 -10 -16 -5 0 -7 7 -3 16 4 12 1 15 -13 12 -10 -2
-18 -10 -16 -17 1 -7 -2 -10 -8 -6 -14 9 -13 -8 2 -23 9 -9 7 -13 -5 -18 -18
-7 -37 2 -37 17 0 6 5 7 10 4 6 -4 10 6 9 22 0 15 -3 22 -6 16 -2 -7 -9 -13
-14 -13 -6 0 -6 8 1 19 7 14 6 21 -3 24 -6 3 -2 6 10 6 12 1 24 5 27 9 3 5 -9
7 -27 4 -24 -2 -28 -1 -17 7 13 9 12 12 -5 25 -11 9 -14 16 -7 16 6 0 12 10
11 23 l0 22 -11 -22 c-6 -13 -18 -23 -27 -24 -10 0 -7 -4 8 -10 18 -7 21 -12
12 -23 -6 -7 -8 -16 -4 -20 10 -10 11 -46 1 -46 -5 0 -7 -4 -4 -9 3 -5 -1 -11
-9 -15 -23 -8 -18 -29 5 -23 16 4 19 1 16 -16 -3 -12 -5 -26 -5 -32 -1 -7 -4
-7 -9 0 -13 18 -51 35 -67 29 -19 -8 -20 -34 0 -34 9 0 12 6 8 17 -4 11 -3 14
5 9 7 -4 12 -14 12 -22 0 -8 7 -14 15 -14 8 0 15 -4 15 -10 0 -5 7 -10 16 -10
8 0 13 3 10 8 -2 4 2 18 9 31 12 24 13 24 11 -10 -1 -19 -5 -40 -10 -47 -5 -8
0 -12 16 -13 23 -1 23 -1 -2 -9 -14 -4 -20 -8 -14 -9 6 -1 12 -12 12 -26 0
-27 -25 -34 -45 -14 -8 8 -13 7 -18 -1 -9 -14 14 -32 32 -25 6 2 17 -2 23 -10
9 -11 7 -16 -9 -25 -17 -9 -21 -8 -21 5 0 11 -6 15 -18 11 -20 -7 -48 29 -32
39 18 11 11 25 -12 25 -13 0 -30 5 -38 11 -12 8 -10 10 10 8 14 0 35 2 47 6
18 6 20 11 12 29 -12 26 -64 30 -79 6 -13 -20 -13 -4 0 20 8 15 7 17 -13 12
-37 -9 -46 -32 -21 -56 14 -15 14 -16 -5 -16 -12 0 -21 -6 -21 -14 0 -8 -6
-17 -12 -20 -7 -3 -1 -5 14 -3 15 2 33 0 40 -4 8 -6 9 -9 2 -9 -7 0 -15 -16
-18 -35 -4 -20 -13 -35 -21 -35 -7 0 -20 -3 -29 -6 -11 -4 -16 -1 -16 11 0 14
-3 15 -15 5 -11 -9 -15 -9 -15 -1 0 20 43 30 59 14 11 -12 16 -12 22 -2 11 19
-7 46 -37 53 -22 6 -24 9 -12 23 10 13 10 17 1 20 -7 3 -13 14 -13 25 0 16 3
18 13 9 8 -6 17 -8 21 -4 4 4 4 -1 0 -11 -5 -13 -3 -17 6 -14 8 2 14 17 15 34
1 39 15 77 33 90 25 18 23 43 -4 50 -13 3 -24 10 -24 16 0 5 4 7 9 3 5 -3 12
4 16 15 3 11 11 20 16 20 5 0 9 4 9 8 0 11 -53 9 -61 -2 -4 -5 -6 -19 -4 -32
1 -13 -1 -21 -6 -19 -4 3 -12 -3 -18 -12 -8 -14 -11 -15 -11 -3 0 12 -3 11
-11 -3 -5 -9 -7 -22 -4 -28 4 -5 -7 -15 -24 -22 -17 -6 -31 -15 -31 -20 0 -5
-6 -4 -13 2 -11 8 -20 3 -43 -24 -31 -37 -57 -46 -52 -18 2 10 -8 23 -23 32
-24 13 -29 13 -58 -8 -31 -23 -33 -23 -47 -5 -11 14 -17 15 -20 7 -8 -18 -43
-16 -50 2 -4 8 -16 15 -29 15 -12 0 -28 -7 -35 -15 -7 -8 -19 -15 -26 -15 -8
0 -14 -7 -14 -15 0 -18 -7 -18 -49 -4 -20 7 -30 16 -27 25 6 17 -10 28 -19 13
-4 -6 -18 -8 -31 -5 -15 4 -24 2 -24 -5 0 -7 -11 -22 -24 -34 -21 -19 -31 -21
-66 -15 -30 5 -45 4 -55 -6 -12 -12 -18 -11 -39 10 -14 13 -26 30 -26 39 0 20
-38 47 -66 47 -26 0 -31 16 -40 122 -6 74 -19 98 -44 83 -4 -3 -10 2 -14 10
-7 19 -56 16 -56 -3 0 -8 9 -16 19 -19 15 -4 20 -16 23 -60 3 -48 0 -57 -17
-64 -17 -7 -18 -8 -2 -8 22 -1 37 -40 34 -91 l-2 -40 -55 -2 -55 -2 54 -3 53
-4 -6 -30 c-8 -43 -29 -60 -79 -64 -42 -4 -44 -3 -39 20 6 32 -6 32 -18 0 -5
-14 -17 -25 -28 -25 -10 0 -23 -5 -30 -12 -9 -9 -13 -7 -18 5 -3 9 -10 14 -15
11 -5 -3 -9 2 -9 10 0 17 -36 22 -42 6 -1 -5 -16 -11 -33 -13 -16 -3 -22 -2
-12 0 26 7 22 43 -5 43 -13 0 -28 4 -34 8 -14 9 -68 102 -71 122 -1 8 -7 16
-12 18 -6 2 -11 10 -11 17 0 8 -6 18 -13 22 -22 14 -76 86 -71 95 3 4 27 8 55
8 37 0 49 4 49 15 0 11 -13 15 -52 17 -29 0 -61 0 -72 0 -12 -2 -16 3 -12 13
3 8 1 15 -4 15 -6 0 -10 14 -10 30 0 17 5 30 10 30 6 0 10 7 10 16 0 10 -6 14
-15 10 -11 -4 -15 2 -15 22 0 43 15 60 40 44 17 -10 20 -10 20 3 0 8 -8 15
-18 15 -15 0 -17 6 -14 35 3 26 0 35 -10 35 -10 0 -13 -9 -10 -30z m-648 -53
c115 -3 134 -9 127 -38 -3 -11 -1 -19 4 -19 5 0 9 11 9 25 0 22 3 24 48 23 26
0 50 -6 54 -12 12 -18 9 -36 -6 -36 -19 0 -31 -39 -16 -54 8 -8 9 -6 4 9 -7
17 -6 18 8 7 14 -11 16 -10 11 7 -3 12 -1 21 6 21 6 0 11 11 11 25 0 29 28 45
41 24 6 -10 9 -10 9 -1 0 6 9 12 20 12 11 0 20 -5 20 -11 0 -8 5 -8 15 1 8 7
22 10 30 6 8 -3 15 -1 15 4 0 5 -10 11 -22 13 -23 4 -23 4 0 6 16 1 26 -6 29
-18 3 -13 10 -18 20 -14 13 5 15 0 11 -25 -2 -17 -1 -29 4 -26 4 3 8 13 8 23
0 10 8 25 17 32 15 12 16 12 10 -3 -3 -10 -2 -18 3 -18 6 0 10 4 10 9 0 20 40
7 41 -14 0 -19 1 -19 9 3 5 12 16 22 25 22 12 0 15 -12 15 -55 0 -44 -3 -53
-15 -49 -18 7 -15 -2 25 -91 15 -33 35 -80 46 -105 22 -53 43 -80 61 -80 8 0
18 -12 23 -26 12 -30 13 -54 2 -39 -8 11 -42 16 -40 6 2 -22 -5 -23 -25 -1
-27 31 -92 80 -105 80 -12 0 -33 56 -24 65 4 3 -1 3 -11 -1 -9 -3 -17 -2 -17
4 0 5 -11 20 -24 33 -13 13 -22 28 -19 35 2 7 0 15 -6 19 -6 3 -11 0 -11 -7 0
-14 -49 41 -50 55 0 5 -7 16 -16 24 -13 13 -13 17 -2 24 9 6 8 9 -7 9 -12 0
-16 3 -9 8 14 9 26 42 15 42 -16 0 -33 -30 -29 -48 4 -15 0 -17 -27 -14 -24 3
-32 0 -32 -13 0 -10 6 -14 15 -10 12 4 12 3 3 -9 -10 -12 -8 -18 13 -31 28
-19 36 -51 10 -41 -8 3 -12 2 -9 -4 3 -6 13 -10 21 -10 15 0 16 -6 16 -57 0
-21 4 -30 12 -27 12 5 14 0 18 -46 1 -12 8 -18 15 -16 7 3 17 -4 23 -14 6 -11
18 -20 26 -20 8 0 12 5 9 10 -3 6 -1 10 4 10 6 0 11 -14 11 -31 0 -29 -2 -31
-27 -24 -16 3 -35 13 -45 22 -9 8 -25 13 -35 11 -10 -1 -28 5 -41 14 -16 11
-32 14 -50 8 -50 -14 -112 42 -112 102 0 10 -4 18 -10 18 -5 0 -10 5 -10 11 0
5 4 8 9 5 14 -9 19 29 5 42 -10 9 -14 7 -19 -8 -8 -26 -25 -16 -20 11 3 14 0
19 -9 16 -14 -6 -51 29 -78 73 -12 20 -25 27 -58 28 -47 3 -47 8 -7 -98 12
-30 20 -59 19 -63 -1 -5 2 -6 8 -2 16 10 12 -12 -6 -30 -15 -14 -18 -14 -35 6
-11 13 -19 37 -19 59 0 56 -11 100 -25 100 -19 0 -27 28 -14 52 6 11 8 22 5
25 -8 9 -26 -7 -26 -24 0 -14 -3 -14 -20 2 -26 23 -28 82 -2 87 9 3 22 3 27 1
6 -2 57 -5 115 -6z m-35 -1347 c76 13 98 13 90 0 -4 -6 13 -10 45 -10 28 0 49
-4 46 -9 -3 -4 7 -6 22 -3 21 4 23 6 9 11 -10 4 12 7 50 6 37 0 83 4 101 8 21
6 32 5 32 -2 0 -6 -16 -11 -35 -11 -19 0 -35 -3 -35 -7 0 -5 17 -8 38 -9 44 0
145 -28 136 -36 -3 -4 3 -4 15 -1 26 7 27 20 4 26 -10 3 0 5 22 5 22 0 32 -2
23 -5 -10 -2 -18 -9 -18 -14 0 -6 5 -7 11 -3 6 3 15 0 20 -7 6 -10 9 -8 9 9 0
15 6 22 20 22 11 0 20 -4 20 -8 0 -5 12 -14 28 -21 23 -10 25 -9 10 2 -16 13
-16 15 6 27 13 7 30 10 38 7 7 -3 3 -6 -9 -6 -22 -1 -34 -21 -12 -21 5 0 7 -4
4 -10 -3 -5 -1 -10 4 -10 6 0 11 5 11 10 0 6 4 10 8 10 5 0 9 -7 9 -15 0 -8
-4 -12 -8 -9 -4 2 -10 0 -14 -6 -3 -5 1 -10 10 -10 9 0 13 -4 10 -10 -4 -6 5
-10 21 -10 42 0 21 -11 -32 -17 -26 -2 -58 -9 -70 -13 -13 -5 -26 -6 -28 -1
-3 4 -63 8 -133 8 -98 0 -114 -1 -68 -7 33 -3 54 -7 46 -8 -8 -1 -11 -5 -8 -8
4 -4 12 -3 19 2 7 5 22 9 33 8 11 -1 36 -2 55 -3 28 -1 32 -4 20 -12 -11 -8
-6 -9 23 -5 36 5 43 -2 38 -36 0 -4 8 -5 19 -3 26 5 17 -11 -9 -18 -14 -3 -21
2 -25 19 -5 20 -10 23 -26 14 -24 -13 -33 -13 -25 0 4 7 -2 7 -19 0 -19 -7
-24 -6 -20 4 8 20 -14 24 -91 16 l-70 -8 65 0 c82 0 91 -2 60 -12 -24 -8 -24
-8 -2 -9 12 -1 22 -6 22 -11 0 -7 7 -7 18 -2 10 5 30 3 52 -5 34 -13 33 -13
-30 -8 -101 8 -154 16 -167 27 -10 8 -13 3 -12 -23 1 -19 3 -26 6 -16 4 17 23
24 23 9 0 -4 15 -6 33 -5 17 2 59 0 92 -5 54 -9 56 -10 19 -11 -44 -1 -127
-30 -89 -31 11 0 27 -9 35 -20 8 -11 23 -18 34 -16 12 2 15 1 9 -1 -7 -3 -13
-8 -13 -11 0 -6 -76 -7 -155 -3 -20 2 -20 2 -1 13 15 8 21 8 24 0 6 -18 22
-14 22 4 0 13 -6 15 -27 10 -59 -15 -176 -18 -184 -5 -10 16 -42 -7 -33 -25 3
-6 -1 -3 -9 7 -9 10 -19 18 -23 17 -5 -1 -10 3 -12 9 -2 6 3 8 12 5 9 -3 16
-1 16 5 0 6 5 11 11 11 6 0 8 -7 5 -16 -5 -14 -4 -15 9 -4 8 7 22 10 30 6 8
-3 15 -1 15 3 0 5 -6 12 -12 14 -7 3 1 6 17 6 47 2 11 18 -42 19 -25 1 -47 3
-50 5 -8 9 45 12 112 6 39 -3 58 -6 43 -7 -48 -3 -30 -17 22 -17 28 0 50 3 50
7 0 5 -5 8 -12 8 -9 0 -9 3 0 12 15 15 16 42 2 33 -6 -4 -8 -10 -5 -15 8 -13
-24 -20 -50 -10 -14 5 -25 15 -25 22 0 8 -5 6 -11 -4 -5 -10 -17 -18 -26 -18
-14 0 -14 2 3 15 19 15 19 16 -1 13 -24 -4 -29 33 -5 44 10 4 6 7 -12 7 -16 1
-28 7 -28 14 0 8 -3 8 -8 2 -9 -14 -82 -19 -82 -6 0 5 8 15 18 20 16 10 16 10
0 11 -9 0 -22 -8 -27 -17 -6 -11 -11 -13 -11 -5 0 7 -4 11 -9 8 -5 -4 -12 0
-15 6 -5 10 -7 10 -12 1 -4 -8 -13 -9 -35 -1 -16 5 -36 7 -44 4 -8 -3 -15 -1
-15 4 0 10 35 14 73 10 11 -1 21 7 24 19 3 12 10 21 15 21 5 0 6 -5 2 -12 -5
-8 -2 -9 10 -5 10 4 30 8 44 8 23 1 22 3 -8 9 l-35 7 43 2 c29 1 41 -3 36 -10
-4 -8 1 -9 17 -3 23 7 81 7 143 -1 16 -2 25 0 20 5 -5 5 -45 11 -89 15 -43 3
-82 9 -85 13 -6 9 -30 10 -190 14 -63 1 -100 4 -82 6 17 2 32 9 32 15 0 9 2 9
8 0 6 -10 22 -10 67 -3z m35 -149 c0 -5 -12 -11 -27 -14 -16 -2 18 -3 74 -2
56 1 100 -2 97 -6 -2 -4 0 -10 5 -13 5 -4 12 2 14 11 4 15 5 14 6 -3 1 -18 -5
-21 -40 -22 -22 -1 -45 -4 -49 -7 -5 -3 -11 -1 -15 5 -4 6 6 10 22 11 27 0 27
1 6 11 -13 6 -37 7 -60 3 -32 -6 -35 -9 -18 -15 11 -5 14 -9 8 -9 -22 -1 -14
-33 9 -39 21 -5 21 -6 2 -13 -19 -7 -19 -8 1 -8 17 -1 17 -3 5 -11 -13 -8 -13
-10 1 -10 9 0 22 -7 29 -15 10 -12 9 -15 -4 -15 -11 0 -15 5 -10 13 4 6 -2 4
-14 -7 -12 -10 -19 -23 -16 -27 7 -12 -13 -11 -38 2 -24 13 -69 4 -65 -13 1
-7 -5 -13 -13 -15 -11 -3 -16 5 -17 24 -1 15 1 22 4 14 4 -9 7 -10 12 -2 4 6
21 13 38 14 40 3 32 17 -10 17 -27 1 -30 2 -16 13 9 7 14 18 12 25 -7 18 -21
15 -19 -5 1 -13 -5 -17 -18 -15 -18 3 -18 2 -5 -14 13 -16 12 -17 -6 -10 -24
9 -23 9 -60 6 -28 -3 -27 -3 10 -10 27 -5 32 -8 15 -9 -16 -1 -21 -4 -13 -9 8
-5 9 -12 2 -22 -8 -11 -12 -12 -16 -2 -6 14 -43 16 -43 2 0 -5 -11 -10 -25
-10 -14 0 -25 -5 -25 -11 0 -7 -21 -8 -65 -4 -58 7 -65 6 -59 -9 5 -12 2 -15
-12 -9 -10 4 -15 2 -11 -4 3 -5 0 -10 -7 -10 -9 0 -12 7 -8 16 10 27 25 38 44
33 10 -2 18 1 18 7 0 15 -57 14 -63 -1 -3 -8 -6 -6 -6 5 -1 9 -6 17 -12 17 -5
0 -7 -4 -4 -10 3 -5 1 -10 -5 -10 -29 0 1 25 41 35 34 9 39 12 23 17 -12 3
-29 1 -38 -4 -17 -10 -62 -1 -51 10 4 4 23 7 43 8 116 3 114 3 98 19 -17 18
-33 19 -38 4 -2 -6 -12 -7 -27 -1 -24 8 -23 9 10 16 24 5 30 9 21 15 -10 6 -7
10 13 15 14 4 30 4 35 1 4 -3 21 0 36 5 21 8 29 8 36 -2 6 -10 8 -10 8 2 0 13
2 13 9 1 8 -12 12 -12 26 2 9 10 23 17 31 17 8 0 17 6 20 13 4 11 14 12 48 4
36 -8 48 -7 67 7 26 18 49 21 49 7z"/>
<path d="M3468 597 c19 -22 -1 -42 -50 -51 -30 -5 -35 -10 -35 -33 0 -21 1
-23 9 -9 5 9 13 14 18 11 6 -3 25 -2 44 3 28 8 34 7 29 -4 -3 -8 -16 -14 -29
-14 -13 0 -28 -9 -34 -20 -13 -25 -37 -26 -45 -1 -4 14 -13 17 -36 15 -18 -2
-28 0 -24 6 4 6 -1 7 -11 3 -15 -5 -15 -7 0 -15 23 -13 20 -27 -6 -22 -13 2
-4 -3 20 -10 50 -17 121 -66 122 -83 0 -7 -6 -10 -13 -7 -8 3 -20 -2 -27 -11
-9 -11 -9 -15 -1 -15 7 0 9 -5 5 -12 -4 -7 -3 -8 5 -4 6 4 18 2 26 -4 8 -7 28
-10 45 -8 16 3 30 1 30 -3 0 -4 8 -7 18 -7 9 0 29 -2 45 -5 19 -4 27 -2 27 8
0 17 -27 28 -32 13 -3 -7 -12 -9 -21 -5 -20 7 -23 25 -4 24 6 0 23 1 37 2 l25
3 -25 8 c-24 8 -24 8 -2 9 15 1 22 7 22 21 0 18 -3 19 -21 10 -25 -14 -62 -4
-39 10 23 14 7 20 -26 11 -16 -5 -24 -10 -18 -10 14 -1 37 -51 24 -51 -6 0
-10 7 -10 15 0 8 -6 12 -14 9 -8 -3 -12 -12 -9 -20 4 -11 -5 -14 -38 -13 -24
0 -37 3 -29 6 49 16 61 27 58 57 l-3 31 50 -2 c29 -1 53 4 57 10 6 9 8 9 8 1
0 -6 -7 -17 -15 -24 -8 -7 -15 -16 -15 -21 0 -5 9 -1 20 8 15 13 20 30 20 66
0 36 -3 46 -12 41 -10 -6 -10 -4 0 7 6 7 12 20 12 29 0 13 -1 13 -10 0 -9 -13
-14 -7 -11 12 0 4 -11 10 -27 14 -15 3 -38 11 -52 17 -14 6 -29 13 -35 16 -5
2 -4 -3 3 -12z"/>
</g>
</svg>
